<svg fill="none" height="48" viewBox="0 0 48 48" width="48" xmlns="http://www.w3.org/2000/svg"><g clip-rule="evenodd" fill-rule="evenodd"><path d="m24 45c11.598 0 21-9.402 21-21s-9.402-21-21-21-21 9.402-21 21 9.402 21 21 21z" fill="#fff"/><path d="m12.9762 41.8773c-5.98695-3.6996-9.9762-10.3226-9.9762-17.8773 0-11.598 9.402-21 21-21s21 9.402 21 21-9.402 21-21 21c-.5566 0-1.1081-.0217-1.6538-.0642l2.0658-5.6756c.713-1.959 2.7254-3.0687 3.7509-4.8122.9146-1.5575 3.7042-6.2363 3.7324-6.2837.5733-.8221 1.4932-2.2277 2.0603-3.1451l3.0977-5.0327c.5666-.9199.6095-2.0745.0955-2.5728-.6829-.6582-1.7318.053-2.1924.6377-1.664 2.3203-3.3917 4.3676-5.2259 6.5026-.2781.3252-.9947.8309-.876-.1368.0105-.0486.5556-2.3395-.89-2.9499l-.0632-.024c-.7814-.2844-1.4037.2042-2.0944 1.0258-.276.3279-.7627-.0292-.6798-.3977.2465-1.1023-.208-2.1332-1.0806-2.4508l-.0671-.0223c-1.1586-.3718-1.9642 1.2985-2.7975.9953-.4096-.1492-.3645-1.2557-.4032-1.5836-.3277-2.8847-.0602-5.7115.1112-8.6041.0236-.83572-.4876-1.92243-1.4632-1.79923-.8311.10689-1.5448 1.04898-1.6259 2.14533l-.5508 5.748c-.1098 1.4846.6921 5.8619-.7134 6.8313-1.3401.9432-2.8721 2.0631-2.9297 3.8284-.1017 2.7751 2.4571 6.2339 1.5674 8.6783-.0048.0132-1.4574 4.0043-2.1981 6.0393z" fill="#1848f7"/></g></svg>