<svg fill="none" height="7" viewBox="0 0 40 7" width="40" xmlns="http://www.w3.org/2000/svg"><g fill="#1848f7"><path d="m18.695 2.22c.2987 0 .5647.05833.798.175.238.11667.4247.29633.56.539.1353.238.203.546.203.924v2.142h-.875v-2.03c0-.33133-.0793-.57867-.238-.742-.154-.16333-.371-.245-.651-.245-.2053 0-.3873.042-.546.126s-.2823.21-.371.378c-.084.16333-.126.371-.126.623v1.89h-.875v-5.194h.875v2.464l-.189-.308c.1307-.238.3197-.42.567-.546.252-.13067.5413-.196.868-.196zm3.651 3.78v-3.738h.833v1.029l-.098-.301c.112-.252.287-.44333.525-.574.2427-.13067.5437-.196.903-.196v.833c-.0373-.00933-.0723-.014-.105-.014-.0327-.00467-.0653-.007-.098-.007-.3313 0-.595.098-.791.294-.196.19133-.294.47833-.294.861v1.813zm6.0063-3.78c.2986 0 .5646.05833.798.175.238.11667.4246.29633.56.539.1353.238.203.546.203.924v2.142h-.875v-2.03c0-.33133-.0794-.57867-.238-.742-.154-.16333-.371-.245-.651-.245-.2054 0-.3874.042-.546.126-.1587.084-.2824.21-.371.378-.084.16333-.126.371-.126.623v1.89h-.875v-3.738h.833v1.008l-.147-.308c.1306-.238.3196-.42.567-.546.252-.13067.5413-.196.868-.196zm5.4148 3.829c-.4153 0-.7793-.08167-1.092-.245-.308-.168-.5483-.39667-.721-.686-.168-.28933-.252-.61833-.252-.987 0-.37333.0817-.70233.245-.987.168-.28933.3967-.51567.686-.679.294-.16333.6277-.245 1.001-.245.364 0 .6883.07933.973.238s.5087.38267.672.672.245.63.245 1.022c0 .03733-.0023.07933-.007.126 0 .04667-.0023.091-.007.133h-3.115v-.581h2.653l-.343.182c.0047-.21467-.0397-.40367-.133-.567s-.2217-.29167-.385-.385c-.1587-.09333-.343-.14-.553-.14-.2147 0-.4037.04667-.567.14-.1587.09333-.2847.224-.378.392-.0887.16333-.133.357-.133.581v.14c0 .224.0513.42233.154.595s.2473.30567.434.399.4013.14.644.14c.21 0 .399-.03267.567-.098s.3173-.168.448-.308l.469.539c-.168.196-.3803.34767-.637.455-.252.10267-.5413.154-.868.154zm4.9845 0c-.4107 0-.728-.105-.952-.315-.224-.21467-.336-.52967-.336-.945v-3.353h.875v3.332c0 .17733.0443.315.133.413.0933.098.2217.147.385.147.196 0 .3593-.05133.49-.154l.245.623c-.1027.084-.2287.147-.378.189s-.3033.063-.462.063zm-1.904-3.059v-.7h2.492v.7z"/><rect height="5" rx="2.5" width="14" y="1"/></g></svg>